<svg xmlns="http://www.w3.org/2000/svg" width="128" height="128" fill="none" viewBox="0 0 128 128"><rect width="94.432" height="92.881" x="3.75" y="36.5" fill="#38A169" rx="10" transform="rotate(-20 3.75 36.5)"/><path fill="#E2E8F0" d="M33.8129 81.853C33.9908 81.806 34.2236 81.739 34.5112 81.6521C34.7931 81.5494 35.1768 81.4098 35.6624 81.2331C37.6514 80.5091 38.949 79.4693 39.5552 78.1135C40.1713 76.7364 40.1488 75.1395 39.4875 73.3227C38.8149 71.4747 37.8213 70.2312 36.5069 69.5922C35.1924 68.9532 33.5328 68.9986 31.5281 69.7282C30.6511 70.0475 30.0332 70.299 29.6744 70.4828L33.8129 81.853ZM42.5885 72.1941C43.1016 73.6036 43.3298 74.9128 43.2732 76.1218C43.2109 77.315 42.9008 78.4123 42.3429 79.4135C41.795 80.3933 41.0121 81.2635 39.9942 82.0242C38.9863 82.7635 37.7932 83.384 36.415 83.8856C35.7572 84.1251 35.0019 84.3645 34.149 84.604C33.3018 84.8591 32.471 85.0373 31.6566 85.1387L25.9021 69.3283C26.5911 68.8825 27.35 68.4821 28.1786 68.1273C29.0072 67.7725 29.7504 67.4754 30.4082 67.236C31.7708 66.74 33.0757 66.4513 34.323 66.3698C35.5647 66.2726 36.7103 66.4232 37.7598 66.8216C38.8193 67.1986 39.7593 67.832 40.5798 68.7217C41.3945 69.5957 42.0641 70.7532 42.5885 72.1941ZM45.751 73.3842C45.3576 72.3036 45.1694 71.2991 45.1862 70.3707C45.2187 69.4365 45.4042 68.6063 45.7429 67.88C46.0759 67.1381 46.5385 66.5086 47.1307 65.9915C47.7172 65.4588 48.3707 65.0613 49.0911 64.7991C50.7825 64.1835 52.2891 64.2293 53.6107 64.9366C54.948 65.6382 55.9957 67.0305 56.7538 69.1135C56.8108 69.2701 56.8685 69.453 56.927 69.6623C56.9954 69.8503 57.0503 70.0254 57.0916 70.1877L48.9868 73.1376C49.4242 74.0958 50.0481 74.7378 50.8584 75.0637C51.6786 75.3682 52.6761 75.3066 53.8507 74.8791C54.5398 74.6283 55.1435 74.3376 55.6617 74.0071C56.1956 73.6709 56.6013 73.3725 56.8789 73.1118L58.1013 75.3008C57.9731 75.4361 57.7852 75.602 57.5375 75.7986C57.2998 75.9738 57.0122 76.1583 56.6748 76.352C56.3587 76.5558 56.0057 76.7552 55.6156 76.9504C55.2255 77.1456 54.819 77.3201 54.3961 77.4741C53.3155 77.8674 52.3188 78.0528 51.406 78.0303C50.4876 77.9921 49.6673 77.7852 48.9453 77.4094C48.2176 77.0181 47.5887 76.4843 47.0588 75.8081C46.5232 75.1162 46.0873 74.3083 45.751 73.3842ZM53.535 69.1144C53.3925 68.7229 53.2037 68.3748 52.9687 68.0701C52.728 67.7498 52.4524 67.5043 52.1419 67.3335C51.8414 67.1414 51.5089 67.0318 51.1443 67.0049C50.7898 66.9566 50.4011 67.0094 49.9782 67.1633C49.5397 67.3229 49.1873 67.5487 48.9211 67.8407C48.6492 68.117 48.4443 68.431 48.3063 68.7828C48.1839 69.1288 48.1228 69.4969 48.1229 69.8871C48.123 70.2772 48.1651 70.661 48.2493 71.0383L53.535 69.1144ZM65.2157 73.1902C63.8455 71.8621 62.3663 70.3076 60.7781 68.5267C59.1998 66.7245 57.6379 64.7478 56.0923 62.5967L59.1228 61.4937C59.5459 62.1201 60.0124 62.7928 60.5224 63.5117C61.0423 64.2093 61.573 64.9118 62.1143 65.6194C62.6655 66.3055 63.2111 66.976 63.751 67.6309C64.3008 68.2644 64.8015 68.8359 65.253 69.3456C65.2713 68.6649 65.2796 67.9081 65.278 67.0751C65.2706 66.2265 65.2497 65.365 65.2153 64.4907C65.1908 63.5951 65.1535 62.7129 65.1034 61.8444C65.0476 60.9601 64.9804 60.1421 64.9019 59.3903L67.8385 58.3215C68.0372 60.9628 68.1034 63.4838 68.0372 65.8846C67.9809 68.264 67.8548 70.4028 67.6589 72.3009L65.2157 73.1902ZM84.3001 66.2441C83.6649 65.7658 82.9556 65.279 82.1723 64.7837C81.389 64.2884 80.5829 63.828 79.754 63.4025C78.9409 62.9713 78.1156 62.58 77.2782 62.2285C76.4408 61.877 75.6398 61.601 74.8751 61.4005L77.5343 68.7066L74.5743 69.784L68.6488 53.5038L71.6088 52.4264L74.0542 59.1452C74.3829 58.4403 74.7238 57.6955 75.0767 56.9108C75.4239 56.1104 75.7632 55.3129 76.0948 54.5183C76.4363 53.7023 76.755 52.9211 77.051 52.1749C77.3469 51.4287 77.6159 50.7544 77.8577 50.152L81.4051 48.8609C81.1049 49.6441 80.7819 50.4623 80.4361 51.3153C80.0903 52.1683 79.7318 53.0349 79.3604 53.915C78.9833 54.7794 78.5984 55.6467 78.2056 56.5168C77.8285 57.3813 77.4479 58.2115 77.0637 59.0076C77.9039 59.2694 78.7832 59.6144 79.7018 60.0428C80.6303 60.4497 81.5631 60.9172 82.5002 61.4452C83.4316 61.9576 84.346 62.5205 85.2432 63.1339C86.1504 63.726 87.0028 64.338 87.8004 64.97L84.3001 66.2441ZM92.6015 63.2226L89.7589 64.2572L85.287 51.9707L88.1296 50.9361L92.6015 63.2226ZM87.1267 47.2306C87.3206 47.7631 87.3022 48.2487 87.0716 48.6873C86.8411 49.126 86.4909 49.4308 86.021 49.6018C85.5355 49.7785 85.0635 49.7729 84.6049 49.5851C84.1464 49.3973 83.8202 49.0371 83.6264 48.5046C83.4269 47.9565 83.4424 47.4631 83.6729 47.0245C83.9035 46.5858 84.2615 46.2781 84.747 46.1014C85.2169 45.9304 85.6811 45.9388 86.1396 46.1267C86.5982 46.3145 86.9272 46.6825 87.1267 47.2306ZM90.4351 46.4255L93.1066 44.9211L94.4576 48.6329L98.8272 47.0425L99.6908 49.4152L95.3212 51.0056L97.1425 56.0095C97.5016 56.9961 97.9147 57.6439 98.3819 57.9528C98.849 58.2616 99.4585 58.2792 100.21 58.0056C100.727 57.8175 101.161 57.5974 101.513 57.3452C101.88 57.0874 102.164 56.8687 102.365 56.6893L103.656 58.7735C103.378 59.0342 102.999 59.3319 102.517 59.6667C102.042 60.0171 101.444 60.3234 100.724 60.5856C99.8465 60.9048 99.0677 61.0553 98.3871 61.037C97.7221 61.013 97.1375 60.8444 96.6333 60.5313C96.1235 60.2025 95.6841 59.7506 95.3151 59.1754C94.9404 58.5846 94.6049 57.882 94.3085 57.0676L90.4351 46.4255Z"/></svg>