<svg xmlns="http://www.w3.org/2000/svg" width="512" height="512" fill="none" viewBox="0 0 512 512"><rect width="377.729" height="371.526" x="15" y="146" fill="#38A169" rx="40" transform="rotate(-20 15 146)"/><path fill="#E2E8F0" d="M135.593 328.352C136.305 328.164 137.236 327.896 138.387 327.548C139.515 327.137 141.049 326.579 142.991 325.872C150.947 322.976 156.138 318.817 158.563 313.394C161.027 307.885 160.937 301.498 158.292 294.231C155.602 286.838 151.627 281.864 146.369 279.308C141.112 276.753 134.473 276.934 126.455 279.853C122.946 281.129 120.475 282.135 119.04 282.871L135.593 328.352ZM170.696 289.716C172.748 295.354 173.661 300.591 173.435 305.427C173.185 310.2 171.945 314.589 169.714 318.594C167.522 322.513 164.39 325.994 160.319 329.037C156.287 331.994 151.515 334.476 146.002 336.482C143.371 337.44 140.349 338.398 136.938 339.356C133.549 340.376 130.226 341.089 126.968 341.494L103.95 278.253C106.707 276.469 109.742 274.868 113.056 273.449C116.371 272.03 119.344 270.841 121.975 269.884C127.425 267.9 132.645 266.745 137.634 266.419C142.601 266.03 147.183 266.632 151.381 268.226C155.619 269.734 159.379 272.268 162.661 275.826C165.92 279.323 168.598 283.952 170.696 289.716ZM183.346 294.477C181.773 290.154 181.019 286.136 181.087 282.422C181.217 278.686 181.959 275.365 183.314 272.46C184.646 269.492 186.496 266.974 188.865 264.906C191.211 262.775 193.825 261.185 196.706 260.136C203.472 257.673 209.498 257.857 214.785 260.686C220.134 263.492 224.325 269.062 227.357 277.394C227.585 278.02 227.816 278.752 228.05 279.589C228.324 280.341 228.543 281.041 228.708 281.691L196.289 293.49C198.039 297.323 200.534 299.891 203.775 301.194C207.057 302.412 211.046 302.166 215.745 300.456C218.501 299.453 220.916 298.29 222.989 296.968C225.124 295.623 226.747 294.43 227.858 293.387L232.747 302.143C232.235 302.684 231.483 303.348 230.492 304.134C229.541 304.835 228.391 305.573 227.041 306.348C225.777 307.163 224.365 307.96 222.804 308.741C221.244 309.522 219.618 310.22 217.926 310.836C213.604 312.409 209.617 313.151 205.966 313.061C202.292 312.908 199.011 312.08 196.123 310.577C193.212 309.012 190.697 306.877 188.577 304.172C186.435 301.405 184.691 298.173 183.346 294.477ZM214.482 277.397C213.912 275.831 213.157 274.439 212.217 273.22C211.254 271.939 210.151 270.957 208.91 270.274C207.708 269.505 206.377 269.067 204.919 268.959C203.501 268.766 201.946 268.977 200.255 269.593C198.501 270.231 197.091 271.134 196.026 272.302C194.939 273.408 194.119 274.664 193.567 276.071C193.078 277.455 192.833 278.927 192.834 280.488C192.834 282.049 193.003 283.584 193.339 285.093L214.482 277.397ZM261.205 293.7C255.724 288.388 249.807 282.17 243.454 275.047C237.141 267.838 230.894 259.931 224.711 251.327L236.833 246.914C238.526 249.42 240.392 252.111 242.432 254.986C244.511 257.777 246.634 260.587 248.799 263.417C251.004 266.162 253.186 268.844 255.346 271.463C257.545 273.997 259.548 276.283 261.354 278.322C261.427 275.599 261.461 272.572 261.454 269.24C261.424 265.845 261.341 262.4 261.203 258.902C261.105 255.32 260.956 251.791 260.756 248.317C260.532 244.78 260.264 241.508 259.95 238.501L271.696 234.226C272.491 244.791 272.756 254.875 272.491 264.478C272.266 273.996 271.761 282.551 270.978 290.143L261.205 293.7ZM337.542 265.916C335.001 264.003 332.164 262.056 329.031 260.075C325.898 258.093 322.674 256.252 319.358 254.55C316.105 252.825 312.804 251.26 309.455 249.854C306.105 248.448 302.901 247.344 299.842 246.542L310.479 275.766L298.639 280.075L274.937 214.955L286.777 210.645L296.559 237.521C297.874 234.701 299.237 231.722 300.649 228.583C302.037 225.381 303.395 222.191 304.721 219.013C306.087 215.749 307.362 212.624 308.546 209.639C309.73 206.654 310.805 203.957 311.773 201.548L325.962 196.383C324.761 199.516 323.469 202.789 322.086 206.201C320.703 209.613 319.269 213.079 317.784 216.6C316.275 220.057 314.736 223.527 313.165 227.007C311.656 230.465 310.134 233.786 308.597 236.97C311.957 238.017 315.475 239.397 319.149 241.111C322.863 242.739 326.595 244.609 330.343 246.721C334.069 248.77 337.726 251.021 341.315 253.475C344.944 255.844 348.353 258.292 351.544 260.82L337.542 265.916ZM370.748 253.83L359.378 257.968L341.49 208.823L352.86 204.684L370.748 253.83ZM348.849 189.862C349.624 191.992 349.551 193.934 348.629 195.689C347.706 197.443 346.306 198.663 344.426 199.347C342.484 200.054 340.596 200.031 338.762 199.28C336.928 198.529 335.623 197.088 334.848 194.958C334.049 192.766 334.112 190.792 335.034 189.037C335.956 187.283 337.388 186.052 339.33 185.345C341.209 184.661 343.066 184.695 344.901 185.446C346.735 186.198 348.051 187.67 348.849 189.862ZM362.082 186.642L372.769 180.624L378.173 195.471L395.651 189.11L399.105 198.6L381.627 204.962L388.912 224.978C390.348 228.924 392.001 231.515 393.87 232.751C395.738 233.986 398.176 234.057 401.183 232.962C403.25 232.21 404.987 231.329 406.394 230.321C407.863 229.289 408.999 228.415 409.802 227.697L414.965 236.034C413.854 237.076 412.337 238.267 410.412 239.606C408.51 241.008 406.118 242.233 403.236 243.282C399.728 244.559 396.613 245.161 393.89 245.088C391.23 244.992 388.892 244.317 386.875 243.065C384.836 241.75 383.078 239.942 381.602 237.641C380.104 235.278 378.762 232.468 377.576 229.21L362.082 186.642Z"/></svg>