<svg xmlns="http://www.w3.org/2000/svg" width="192" height="192" fill="none" viewBox="0 0 192 192"><rect width="141.648" height="139.322" x="5.625" y="54.75" fill="#38A169" rx="15" transform="rotate(-20 5.625 54.75)"/><path fill="#E2E8F0" d="M50.8903 123.249C51.1573 123.179 51.5064 123.078 51.9379 122.948C52.3607 122.794 52.9363 122.585 53.6645 122.319C56.6481 121.234 58.5945 119.674 59.5038 117.64C60.428 115.574 60.3942 113.179 59.4023 110.454C58.3934 107.682 56.903 105.817 54.9313 104.858C52.9596 103.9 50.4702 103.968 47.4632 105.062C46.1477 105.541 45.2208 105.918 44.6826 106.194L50.8903 123.249ZM64.0538 108.761C64.8233 110.875 65.1657 112.839 65.0808 114.653C64.9873 116.442 64.5222 118.088 63.6854 119.59C62.8635 121.06 61.6891 122.365 60.1623 123.506C58.6504 124.615 56.8608 125.546 54.7935 126.298C53.8068 126.657 52.6738 127.017 51.3945 127.376C50.1238 127.758 48.8775 128.026 47.6559 128.178L39.0241 104.462C40.0577 103.794 41.196 103.193 42.4389 102.661C43.6818 102.129 44.7966 101.683 45.7833 101.324C47.8271 100.58 49.7846 100.147 51.6556 100.025C53.518 99.8787 55.2364 100.105 56.8107 100.702C58.4 101.268 59.81 102.218 61.0407 103.552C62.2628 104.863 63.2672 106.6 64.0538 108.761ZM68.7974 110.546C68.2075 108.925 67.9251 107.418 67.9503 106.026C67.999 104.625 68.2774 103.379 68.7854 102.29C69.2849 101.177 69.9788 100.233 70.8671 99.4571C71.7468 98.658 72.727 98.0618 73.8077 97.6685C76.3448 96.745 78.6046 96.8138 80.587 97.8747C82.593 98.9271 84.1645 101.016 85.3017 104.14C85.3872 104.375 85.4738 104.649 85.5615 104.963C85.6641 105.245 85.7464 105.508 85.8084 105.751L73.6512 110.176C74.3073 111.614 75.2431 112.577 76.4586 113.065C77.689 113.522 79.1851 113.43 80.9471 112.789C81.9807 112.412 82.8862 111.976 83.6635 111.481C84.4644 110.976 85.073 110.529 85.4893 110.138L87.3229 113.421C87.1307 113.624 86.8489 113.873 86.4773 114.168C86.1207 114.431 85.6893 114.707 85.1832 114.998C84.7091 115.303 84.1795 115.603 83.5944 115.895C83.0092 116.188 82.3995 116.45 81.7652 116.681C80.1442 117.271 78.6492 117.549 77.2801 117.515C75.9024 117.458 74.672 117.148 73.589 116.584C72.4973 115.997 71.5541 115.196 70.7593 114.182C69.9559 113.144 69.3019 111.932 68.7974 110.546ZM80.4736 104.141C80.2598 103.554 79.9766 103.032 79.6241 102.575C79.263 102.095 78.8496 101.726 78.3839 101.47C77.9331 101.182 77.4343 101.018 76.8875 100.977C76.3557 100.905 75.7726 100.984 75.1383 101.215C74.4805 101.454 73.952 101.793 73.5527 102.231C73.1449 102.645 72.8374 103.116 72.6304 103.644C72.4469 104.163 72.3552 104.715 72.3554 105.3C72.3555 105.886 72.4187 106.461 72.5449 107.027L80.4736 104.141ZM97.9945 110.255C95.9392 108.263 93.7204 105.931 91.3381 103.26C88.9707 100.557 86.6278 97.5916 84.3094 94.3649L88.8552 92.7104C89.4898 93.65 90.1897 94.659 90.9546 95.7374C91.7345 96.7838 92.5305 97.8376 93.3424 98.8989C94.1693 99.9282 94.9877 100.934 95.7974 101.916C96.6222 102.866 97.3732 103.724 98.0505 104.488C98.078 103.467 98.0905 102.332 98.0879 101.083C98.0769 99.8095 98.0455 98.5173 97.9939 97.2059C97.9572 95.8624 97.9013 94.5393 97.8261 93.2364C97.7424 91.91 97.6417 90.683 97.5239 89.5553L101.929 87.952C102.227 91.914 102.326 95.6956 102.227 99.2968C102.142 102.866 101.953 106.074 101.659 108.921L97.9945 110.255ZM126.621 99.8359C125.668 99.1185 124.604 98.3884 123.429 97.6454C122.254 96.9025 121.045 96.2119 119.802 95.5736C118.582 94.9268 117.344 94.3398 116.088 93.8126C114.832 93.2854 113.631 92.8714 112.484 92.5706L116.472 103.53L112.032 105.146L103.144 80.7255L107.584 79.1095L111.252 89.1877C111.745 88.1303 112.257 87.013 112.786 85.836C113.307 84.6355 113.816 83.4392 114.313 82.2473C114.825 81.0232 115.304 79.8516 115.747 78.7322C116.191 77.6129 116.595 76.6014 116.958 75.6978L122.279 73.7611C121.828 74.936 121.344 76.1632 120.825 77.4428C120.307 78.7223 119.769 80.0222 119.212 81.3423C118.646 82.639 118.069 83.9399 117.479 85.2451C116.914 86.5418 116.343 87.7872 115.767 88.9813C117.027 89.3739 118.346 89.8915 119.724 90.534C121.116 91.1445 122.516 91.8457 123.921 92.6377C125.318 93.4062 126.69 94.2505 128.036 95.1707C129.397 96.0588 130.675 96.9769 131.872 97.9249L126.621 99.8359ZM139.073 95.3037L134.809 96.8556L128.102 78.4259L132.365 76.874L139.073 95.3037ZM130.861 71.3158C131.152 72.1145 131.124 72.8429 130.778 73.5008C130.433 74.1588 129.907 74.616 129.203 74.8725C128.474 75.1376 127.766 75.1293 127.078 74.8475C126.391 74.5658 125.901 74.0256 125.611 73.2268C125.311 72.4046 125.335 71.6645 125.68 71.0065C126.026 70.3486 126.563 69.8871 127.292 69.622C127.996 69.3655 128.693 69.3781 129.38 69.6598C130.068 69.9416 130.562 70.4935 130.861 71.3158ZM135.824 70.1082L139.831 67.8515L141.857 73.4192L148.412 71.0336L149.707 74.5927L143.153 76.9782L145.885 84.484C146.423 85.9641 147.043 86.9357 147.744 87.399C148.445 87.8623 149.359 87.8887 150.486 87.4783C151.262 87.1961 151.913 86.8659 152.44 86.4877C152.991 86.101 153.417 85.773 153.718 85.5038L155.654 88.6301C155.238 89.0211 154.669 89.4677 153.947 89.9698C153.234 90.4955 152.337 90.955 151.256 91.3483C149.941 91.8271 148.773 92.0528 147.752 92.0253C146.754 91.9893 145.877 91.7365 145.121 91.2668C144.356 90.7736 143.697 90.0957 143.144 89.2329C142.582 88.3467 142.078 87.2928 141.634 86.0712L135.824 70.1082Z"/></svg>