<svg xmlns="http://www.w3.org/2000/svg" width="384" height="384" fill="none" viewBox="0 0 384 384"><rect width="283.297" height="278.644" x="11.25" y="109.5" fill="#38A169" rx="30" transform="rotate(-20 11.25 109.5)"/><path fill="#E2E8F0" d="M101.781 246.499C102.314 246.358 103.013 246.157 103.876 245.896C104.721 245.588 105.873 245.169 107.329 244.639C113.296 242.467 117.189 239.348 119.008 235.28C120.856 231.149 120.788 226.358 118.805 220.908C116.787 215.364 113.806 211.633 109.863 209.716C105.919 207.799 100.94 207.935 94.9264 210.124C92.2953 211.082 90.4416 211.837 89.3652 212.388L101.781 246.499ZM128.108 217.522C129.647 221.751 130.331 225.678 130.162 229.305C129.975 232.885 129.044 236.177 127.371 239.18C125.727 242.12 123.378 244.73 120.325 247.012C117.301 249.23 113.722 251.092 109.587 252.597C107.614 253.315 105.348 254.033 102.789 254.752C100.248 255.517 97.7551 256.052 95.3117 256.356L78.0482 208.925C80.1154 207.587 82.3919 206.386 84.8778 205.322C87.3636 204.257 89.5932 203.366 91.5666 202.648C95.6543 201.16 99.5691 200.294 103.311 200.049C107.036 199.757 110.473 200.209 113.621 201.404C116.8 202.536 119.62 204.436 122.081 207.105C124.526 209.727 126.534 213.199 128.108 217.522ZM137.595 221.092C136.415 217.85 135.85 214.837 135.901 212.052C135.998 209.249 136.555 206.759 137.571 204.58C138.57 202.354 139.958 200.465 141.734 198.914C143.494 197.316 145.454 196.124 147.615 195.337C152.69 193.49 157.209 193.628 161.174 195.749C165.186 197.854 168.329 202.031 170.603 208.28C170.774 208.75 170.948 209.299 171.123 209.927C171.328 210.491 171.493 211.016 171.617 211.503L147.302 220.353C148.615 223.227 150.486 225.153 152.917 226.131C155.378 227.044 158.37 226.86 161.894 225.577C163.961 224.825 165.772 223.953 167.327 222.961C168.929 221.952 170.146 221.057 170.979 220.275L174.646 226.842C174.261 227.248 173.698 227.746 172.955 228.335C172.241 228.861 171.379 229.415 170.366 229.996C169.418 230.607 168.359 231.205 167.189 231.791C166.018 232.376 164.799 232.9 163.53 233.362C160.288 234.542 157.298 235.098 154.56 235.031C151.805 234.916 149.344 234.295 147.178 233.168C144.995 231.994 143.108 230.393 141.519 228.364C139.912 226.288 138.604 223.864 137.595 221.092ZM160.947 208.283C160.52 207.108 159.953 206.064 159.248 205.15C158.526 204.189 157.699 203.453 156.768 202.94C155.866 202.364 154.869 202.035 153.775 201.954C152.711 201.809 151.545 201.968 150.277 202.429C148.961 202.908 147.904 203.586 147.105 204.462C146.29 205.291 145.675 206.233 145.261 207.288C144.894 208.326 144.71 209.43 144.711 210.601C144.711 211.771 144.837 212.923 145.09 214.055L160.947 208.283ZM195.989 220.51C191.878 216.526 187.441 211.862 182.676 206.52C177.941 201.113 173.256 195.183 168.619 188.73L177.71 185.421C178.98 187.3 180.379 189.318 181.909 191.475C183.469 193.568 185.061 195.675 186.685 197.798C188.339 199.856 189.975 201.868 191.595 203.832C193.244 205.733 194.746 207.448 196.101 208.976C196.156 206.934 196.181 204.664 196.176 202.165C196.154 199.619 196.091 197.035 195.988 194.412C195.914 191.725 195.803 189.079 195.652 186.473C195.485 183.82 195.283 181.366 195.048 179.111L203.857 175.904C204.453 183.828 204.652 191.391 204.454 198.594C204.285 205.732 203.907 212.148 203.319 217.843L195.989 220.51ZM253.242 199.672C251.337 198.237 249.209 196.777 246.859 195.291C244.509 193.805 242.091 192.424 239.604 191.147C237.165 189.854 234.689 188.68 232.177 187.625C229.665 186.571 227.261 185.743 224.967 185.141L232.945 207.059L224.065 210.292L206.288 161.451L215.168 158.219L222.505 178.375C223.491 176.261 224.513 174.026 225.572 171.672C226.614 169.271 227.632 166.878 228.626 164.495C229.651 162.046 230.607 159.703 231.495 157.464C232.383 155.226 233.19 153.203 233.915 151.396L244.557 147.522C243.657 149.872 242.688 152.326 241.65 154.886C240.613 157.445 239.537 160.044 238.423 162.685C237.292 165.278 236.137 167.88 234.959 170.49C233.828 173.084 232.686 175.574 231.533 177.963C234.054 178.748 236.692 179.783 239.447 181.068C242.233 182.289 245.031 183.691 247.843 185.275C250.637 186.812 253.38 188.501 256.072 190.341C258.793 192.118 261.351 193.954 263.743 195.85L253.242 199.672ZM278.146 190.607L269.619 193.711L256.203 156.852L264.731 153.748L278.146 190.607ZM261.722 142.632C262.304 144.229 262.249 145.686 261.557 147.002C260.865 148.318 259.815 149.232 258.405 149.745C256.949 150.275 255.533 150.259 254.157 149.695C252.781 149.132 251.803 148.051 251.221 146.454C250.623 144.809 250.669 143.329 251.361 142.013C252.052 140.697 253.127 139.774 254.583 139.244C255.993 138.731 257.385 138.756 258.761 139.32C260.137 139.883 261.124 140.987 261.722 142.632ZM271.647 140.216L279.662 135.703L283.715 146.838L296.824 142.067L299.414 149.185L286.306 153.956L291.769 168.968C292.847 171.928 294.086 173.871 295.488 174.798C296.889 175.725 298.717 175.777 300.973 174.957C302.523 174.392 303.826 173.732 304.881 172.975C305.983 172.202 306.835 171.546 307.437 171.008L311.309 177.26C310.476 178.042 309.338 178.935 307.894 179.94C306.468 180.991 304.674 181.91 302.513 182.697C299.882 183.654 297.545 184.106 295.503 184.051C293.508 183.979 291.755 183.473 290.242 182.534C288.712 181.547 287.394 180.191 286.287 178.466C285.163 176.693 284.157 174.586 283.267 172.142L271.647 140.216Z"/></svg>